<mxfile host="65bd71144e">
    <diagram id="6yEYJofzYmwEzdcX6yF_" name="ページ1">
        <mxGraphModel dx="392" dy="350" grid="1" gridSize="10" guides="1" tooltips="1" connect="1" arrows="1" fold="1" page="1" pageScale="1" pageWidth="827" pageHeight="1169" math="0" shadow="0">
            <root>
                <mxCell id="0"/>
                <mxCell id="1" parent="0"/>
                <mxCell id="16" value="" style="rounded=0;whiteSpace=wrap;html=1;strokeColor=none;" parent="1" vertex="1">
                    <mxGeometry x="160" y="140" width="580" height="320" as="geometry"/>
                </mxCell>
                <mxCell id="17" value="" style="shape=image;verticalLabelPosition=bottom;labelBackgroundColor=default;verticalAlign=top;aspect=fixed;imageAspect=0;image=https://img.icons8.com/color/512/google-logo.png;" vertex="1" parent="1">
                    <mxGeometry x="639" y="204.98000000000002" width="72" height="72" as="geometry"/>
                </mxCell>
                <mxCell id="8" style="edgeStyle=orthogonalEdgeStyle;html=1;strokeWidth=2;rounded=0;curved=0;" parent="1" source="2" edge="1">
                    <mxGeometry relative="1" as="geometry">
                        <mxPoint x="639.74" y="241" as="targetPoint"/>
                        <Array as="points">
                            <mxPoint x="580" y="300"/>
                            <mxPoint x="580" y="241"/>
                        </Array>
                    </mxGeometry>
                </mxCell>
                <mxCell id="9" style="edgeStyle=orthogonalEdgeStyle;shape=connector;curved=0;rounded=0;html=1;strokeColor=default;strokeWidth=2;align=center;verticalAlign=middle;fontFamily=Helvetica;fontSize=11;fontColor=default;labelBackgroundColor=default;endArrow=classic;startArrow=classic;startFill=1;" parent="1" source="2" edge="1">
                    <mxGeometry relative="1" as="geometry">
                        <Array as="points">
                            <mxPoint x="580" y="300"/>
                            <mxPoint x="580" y="350"/>
                        </Array>
                        <mxPoint x="640" y="350" as="targetPoint"/>
                    </mxGeometry>
                </mxCell>
                <mxCell id="2" value="" style="sketch=0;points=[[0,0,0],[0.25,0,0],[0.5,0,0],[0.75,0,0],[1,0,0],[0,1,0],[0.25,1,0],[0.5,1,0],[0.75,1,0],[1,1,0],[0,0.25,0],[0,0.5,0],[0,0.75,0],[1,0.25,0],[1,0.5,0],[1,0.75,0]];outlineConnect=0;fontColor=#232F3E;fillColor=#DD344C;strokeColor=#ffffff;dashed=0;verticalLabelPosition=bottom;verticalAlign=top;align=center;html=1;fontSize=12;fontStyle=0;aspect=fixed;shape=mxgraph.aws4.resourceIcon;resIcon=mxgraph.aws4.cognito;" parent="1" vertex="1">
                    <mxGeometry x="431" y="261" width="78" height="78" as="geometry"/>
                </mxCell>
                <mxCell id="3" value="Amazon Cognito" style="text;html=1;align=center;verticalAlign=middle;whiteSpace=wrap;rounded=0;" parent="1" vertex="1">
                    <mxGeometry x="420" y="339" width="100" height="30" as="geometry"/>
                </mxCell>
                <mxCell id="7" value="" style="edgeStyle=orthogonalEdgeStyle;html=1;strokeWidth=2;rounded=0;curved=0;" parent="1" edge="1">
                    <mxGeometry relative="1" as="geometry">
                        <mxPoint x="330" y="290" as="sourcePoint"/>
                        <mxPoint x="430" y="290" as="targetPoint"/>
                        <Array as="points">
                            <mxPoint x="370" y="290"/>
                            <mxPoint x="370" y="290"/>
                        </Array>
                    </mxGeometry>
                </mxCell>
                <mxCell id="4" value="" style="html=1;verticalLabelPosition=bottom;labelBackgroundColor=#ffffff;verticalAlign=top;shadow=0;strokeWidth=1;shape=mxgraph.ios7.misc.iphone;strokeColor=#000000;aspect=fixed;" parent="1" vertex="1">
                    <mxGeometry x="190" y="160" width="140" height="280" as="geometry"/>
                </mxCell>
                <mxCell id="6" value="" style="dashed=0;outlineConnect=0;html=1;align=center;labelPosition=center;verticalLabelPosition=bottom;verticalAlign=top;shape=mxgraph.weblogos.apple;fillColor=#1B1C1C;strokeColor=none;aspect=fixed;" parent="1" vertex="1">
                    <mxGeometry x="650.87" y="320" width="49.13" height="60" as="geometry"/>
                </mxCell>
                <mxCell id="10" value="" style="edgeStyle=orthogonalEdgeStyle;html=1;strokeWidth=2;rounded=0;curved=0;exitX=1.005;exitY=0.536;exitDx=0;exitDy=0;exitPerimeter=0;startArrow=classic;startFill=1;endArrow=none;endFill=0;" parent="1" edge="1">
                    <mxGeometry relative="1" as="geometry">
                        <mxPoint x="330.70000000000005" y="320.08000000000004" as="sourcePoint"/>
                        <mxPoint x="430" y="320" as="targetPoint"/>
                        <Array as="points"/>
                    </mxGeometry>
                </mxCell>
                <mxCell id="11" value="" style="shape=image;verticalLabelPosition=bottom;labelBackgroundColor=default;verticalAlign=top;aspect=fixed;imageAspect=0;image=https://upload.wikimedia.org/wikipedia/commons/thumb/4/44/Google-flutter-logo.svg/1024px-Google-flutter-logo.svg.png;" parent="1" vertex="1">
                    <mxGeometry x="205.03" y="284.26" width="109.94" height="31.47" as="geometry"/>
                </mxCell>
                <mxCell id="12" value="Google" style="text;html=1;align=center;verticalAlign=middle;whiteSpace=wrap;rounded=0;" parent="1" vertex="1">
                    <mxGeometry x="625" y="270" width="100" height="30" as="geometry"/>
                </mxCell>
                <mxCell id="13" value="&amp;nbsp;Apple" style="text;html=1;align=center;verticalAlign=middle;whiteSpace=wrap;rounded=0;" parent="1" vertex="1">
                    <mxGeometry x="625" y="380" width="100" height="30" as="geometry"/>
                </mxCell>
            </root>
        </mxGraphModel>
    </diagram>
</mxfile>